<?xml version="1.0" encoding="UTF-8"?><svg id="Capa_2" xmlns="http://www.w3.org/2000/svg" viewBox="0 0 185.21 184.32"><defs><style>.cls-1{fill:#1f3354;}</style></defs><g id="Capa_1-2"><path class="cls-1" d="M11.04,46.99c1.42-6.7,19.36-3.01,24.51-4,15.38-57.27,98.72-57.35,114.11,0,4.21.74,24.51-2.29,24.51,4v105.02c3.5.02,8.6-.88,10.28,3.07.93,2.18.87,13.89.55,16.78-.65,5.74-4.71,10.56-10.24,12.13l-163.18.32c-6.56-1.58-10.78-6.4-11.39-13.15-.27-2.98-.38-13.86.57-16.09,1.69-3.95,6.78-3.05,10.28-3.07V46.99ZM93.32,123.13c1.81-3.69,4.8-12.57,7.9-14.84,2.26-1.65,7.23-2.33,10.14-3.58,44.31-18.87,37.97-84.25-9.22-93.25C44.55.5,19.82,81.71,73.85,104.72c2.8,1.19,7.54,1.87,9.75,3.24,3.28,2.02,5.84,10.75,8.11,14.25.45.7-.08,1.29,1.61.93ZM32.7,53.84h-10.83v98.16h141.47V53.84h-10.83v10.47c0,19.67-17.33,41.1-34.39,49.34-2.08,1.01-9.31,3.07-10.18,3.89-3.37,3.15-7.26,16.21-10.69,20.71-3.2,4.2-6.65,3.67-9.58-.44-3.15-4.42-7.23-17.3-10.4-20.27-.88-.82-8.1-2.89-10.18-3.89-17.07-8.24-34.39-29.66-34.39-49.34v-10.47ZM68.07,162.83H11.04c.12,1.86-.81,10.83,1.8,10.83h60.27l-5.05-10.83ZM105.6,162.83h-25.26l5.78,10.46,13.38.42,1.13-.5,4.98-10.38ZM174.17,162.83h-57.02l-5.05,10.83h60.27c2.62,0,1.69-8.97,1.8-10.83Z"/><path class="cls-1" d="M105.45,91.15h-24.77c-1.13,0-2.09-.39-2.88-1.18-.79-.79-1.18-1.75-1.18-2.88s.39-2.05,1.18-2.85c.79-.81,1.75-1.21,2.88-1.21h8.32v-30.33h-8.22c-1.13,0-2.09-.4-2.88-1.21-.79-.81-1.19-1.76-1.19-2.85s.39-2.1,1.19-2.93c.79-.82,1.75-1.23,2.88-1.23h12.38c1.13,0,2.09.41,2.88,1.23.79.82,1.19,1.8,1.19,2.93v34.39h8.13c1.13,0,2.1.4,2.93,1.18.82.79,1.23,1.75,1.23,2.88s-.4,2.09-1.21,2.88c-.81.79-1.76,1.18-2.85,1.18ZM88.91,23.38h4.26c1.13,0,2.09.4,2.88,1.18.79.79,1.19,1.75,1.19,2.88v3.48c0,1.13-.4,2.1-1.19,2.93-.79.82-1.75,1.23-2.88,1.23h-4.35c-1.16,0-2.14-.42-2.93-1.26-.79-.84-1.17-1.77-1.14-2.81l.1-3.58c0-1.13.39-2.09,1.18-2.88.79-.79,1.75-1.18,2.88-1.18Z"/></g></svg>