<?xml version="1.0" encoding="UTF-8"?><svg id="Capa_2" xmlns="http://www.w3.org/2000/svg" viewBox="0 0 837.27 430.17"><defs><style>.cls-1{fill:#e6e7e8;}</style></defs><g id="Capa_1-2"><path class="cls-1" d="M739.4,256.06l-7.98-7.96c-13.72,13.29-45.61,44.75-100.12,44.75s-108.54-38.56-108.54-132.48c0-63.79,19.48-92.15,36.77-108.99,18.6-18.16,44.3-27.03,66.45-27.03,54.49,0,86.4,35.45,97.47,81.97h10.18l-3.98-99.68h-9.31c-3.54,14.62-18.16,14.62-20.37,14.62-9.75,0-38.55-14.62-77.98-14.62-76.2,0-150.64,53.6-150.64,152.84,0,110.32,76.65,152.84,147.98,152.84,81.51,0,119.62-55.38,120.06-56.26"/><path class="cls-1" d="M227.83,76.36c0-47.19,7.63-53.92,42.23-57.53v-8.55h-104.25v8.55c31.46,1.79,42.24,9.44,42.24,57.53v121.31c0,36.4-4.5,51.23-10.34,61.11-13.01,21.13-38.64,35.51-73.68,35.51-78.18,0-78.18-62.46-78.18-91.21V10.72H0v188.74c0,26.97,0,114.57,111.43,114.57s116.4-84.47,116.4-120.41v-117.27Z"/><path class="cls-1" d="M357.17,4.89l-93.46,220.63c-8.54,19.78-22.47,52.58-32.81,63.83-8.09,8.54-15.74,9.42-22.91,9.88v8.53h88.96v-8.53c-9.44,0-30.55,0-30.55-18.89,0-4.94,1.36-11.23,3.59-17.08l79.99-194.56,104.72,238.64h44.96L366.16,4.89h-8.99Z"/><path class="cls-1" d="M348.69,197.05c-14.6,0-26.43,11.84-26.43,26.44s11.82,26.43,26.43,26.43,26.44-11.82,26.44-26.43-11.84-26.44-26.44-26.44"/><path class="cls-1" d="M834.55,0l-87.19.68v8.53c35.07,2.25,41.35,7.2,41.35,40.45l2.81,236.63c0,24.24-1.71,46.36-4.85,66.4-3.16,20.55-8.45,33.74-16.87,39.53-8.45,6.33-14.77,10.02-18.98,11.6-4.75,2.12-8.44,3.17-11.6,3.17-6.32,0-12.64-5.27-19.49-15.82-7.39-10.55-15.3-14.76-23.73-13.69-8.44,2.11-14.22,4.74-17.39,8.42-4.22,4.75-5.81,9.49-5.81,15.29.52,8.44,3.69,14.76,10.01,20.03,6.85,6.34,15.82,8.95,26.88,8.95,7.39-.51,17.93-2.1,32.68-5.77,15.82-3.69,35.33-17.94,59.05-42.7,24.24-25.32,35.85-56.93,35.85-95.4L834.55,0Z"/></g></svg>