<?xml version="1.0" encoding="UTF-8"?><svg id="Capa_2" xmlns="http://www.w3.org/2000/svg" viewBox="0 0 598.32 118.83"><defs><style>.cls-1{fill:#e6e7e8;}</style></defs><g id="Capa_1-2"><path class="cls-1" d="M518.73,78.35h2.86v-2.86s1.71,0,1.71,0v2.86h2.86s0,1.7,0,1.7h-2.86v2.86s-1.71,0-1.71,0v-2.86h-2.86s0-1.7,0-1.7Z"/><path class="cls-1" d="M518.73,90.91h2.86v-2.86s1.71,0,1.71,0v2.86h2.86s0,1.7,0,1.7h-2.86v2.86s-1.71,0-1.71,0v-2.86h-2.86s0-1.7,0-1.7Z"/><path class="cls-1" d="M531.28,90.91h2.86v-2.86s1.71,0,1.71,0v2.86h2.86s0,1.7,0,1.7h-2.86v2.86s-1.71,0-1.71,0v-2.86h-2.86s0-1.7,0-1.7Z"/><path class="cls-1" d="M543.84,65.8h2.86v-2.86s1.71,0,1.71,0v2.86h2.86s0,1.7,0,1.7h-2.86v2.86s-1.71,0-1.71,0v-2.86h-2.86s0-1.7,0-1.7Z"/><path class="cls-1" d="M556.39,65.8h2.86v-2.86s1.71,0,1.71,0v2.86h2.86s0,1.7,0,1.7h-2.86v2.86s-1.71,0-1.71,0v-2.86h-2.86s0-1.7,0-1.7Z"/><path class="cls-1" d="M568.94,65.8h2.86v-2.86s1.71,0,1.71,0v2.86h2.86s0,1.7,0,1.7h-2.86v2.86s-1.71,0-1.71,0v-2.86h-2.86s0-1.7,0-1.7Z"/><path class="cls-1" d="M581.49,53.25h2.86v-2.86s1.71,0,1.71,0v2.86h2.86s0,1.7,0,1.7h-2.86v2.86s-1.71,0-1.71,0v-2.86h-2.86s0-1.7,0-1.7Z"/><path class="cls-1" d="M581.49,65.8h2.86v-2.86s1.71,0,1.71,0v2.86h2.86s0,1.7,0,1.7h-2.86v2.86s-1.71,0-1.71,0v-2.86h-2.86s0-1.7,0-1.7Z"/><path class="cls-1" d="M590.91,53.25h2.86v-2.86s1.71,0,1.71,0v2.86h2.86s0,1.7,0,1.7h-2.86v2.86s-1.71,0-1.71,0v-2.86h-2.86s0-1.7,0-1.7Z"/><path class="cls-1" d="M590.91,65.8h2.86v-2.86s1.71,0,1.71,0v2.86h2.86s0,1.7,0,1.7h-2.86v2.86s-1.71,0-1.71,0v-2.86h-2.86s0-1.7,0-1.7Z"/><path class="cls-1" d="M496.77,101.72h2.86v-2.86s1.71,0,1.71,0v2.86h2.86s0,1.7,0,1.7h-2.86v2.86s-1.71,0-1.71,0v-2.86h-2.86s0-1.7,0-1.7Z"/><path class="cls-1" d="M509.32,101.72h2.86v-2.86s1.71,0,1.71,0v2.86h2.86s0,1.7,0,1.7h-2.86v2.86s-1.71,0-1.71,0v-2.86h-2.86s0-1.7,0-1.7Z"/><path class="cls-1" d="M510.17,114.27h0c1.11,0,2-.9,2-2h0c0-.47.38-.85.85-.85h0c.47,0,.85.38.85.85h0c0,1.11.9,2,2,2h0c.47,0,.85.38.85.85h0c0,.47-.38.85-.85.85h0c-1.11,0-2,.9-2,2h0c0,.47-.38.85-.85.85h0c-.47,0-.85-.38-.85-.85h0c0-1.11-.9-2-2-2h0c-.47,0-.85-.38-.85-.85h0c0-.47.38-.85.85-.85Z"/><path class="cls-1" d="M522.72,101.72h1.15c.47,0,.85-.38.85-.85v-1.15c0-.47.38-.85.85-.85h0c.47,0,.85.38.85.85v1.15c0,.47.38.85.85.85h1.15c.47,0,.85.38.85.85h0c0,.47-.38.85-.85.85h-1.15c-.47,0-.85.38-.85.85v1.15c0,.47-.38.85-.85.85h0c-.47,0-.85-.38-.85-.85v-1.15c0-.47-.38-.85-.85-.85h-1.15c-.47,0-.85-.38-.85-.85h0c0-.47.38-.85.85-.85Z"/><path class="cls-1" d="M522.72,114.27h1.15c.47,0,.85-.38.85-.85v-1.15c0-.47.38-.85.85-.85h0c.47,0,.85.38.85.85v1.15c0,.47.38.85.85.85h1.15c.47,0,.85.38.85.85h0c0,.47-.38.85-.85.85h-1.15c-.47,0-.85.38-.85.85v1.15c0,.47-.38.85-.85.85h0c-.47,0-.85-.38-.85-.85v-1.15c0-.47-.38-.85-.85-.85h-1.15c-.47,0-.85-.38-.85-.85h0c0-.47.38-.85.85-.85Z"/><path class="cls-1" d="M532.14,101.72h1.15c.47,0,.85-.38.85-.85v-1.15c0-.47.38-.85.85-.85h0c.47,0,.85.38.85.85v1.15c0,.47.38.85.85.85h1.15c.47,0,.85.38.85.85h0c0,.47-.38.85-.85.85h-1.15c-.47,0-.85.38-.85.85v1.15c0,.47-.38.85-.85.85h0c-.47,0-.85-.38-.85-.85v-1.15c0-.47-.38-.85-.85-.85h-1.15c-.47,0-.85-.38-.85-.85h0c0-.47.38-.85.85-.85Z"/><path class="cls-1" d="M532.14,114.27h1.15c.47,0,.85-.38.85-.85v-1.15c0-.47.38-.85.85-.85h0c.47,0,.85.38.85.85v1.15c0,.47.38.85.85.85h1.15c.47,0,.85.38.85.85h0c0,.47-.38.85-.85.85h-1.15c-.47,0-.85.38-.85.85v1.15c0,.47-.38.85-.85.85h0c-.47,0-.85-.38-.85-.85v-1.15c0-.47-.38-.85-.85-.85h-1.15c-.47,0-.85-.38-.85-.85h0c0-.47.38-.85.85-.85Z"/><path class="cls-1" d="M565.82,40.24h2.86v-2.86s1.71,0,1.71,0v2.86h2.86s0,1.7,0,1.7h-2.86v2.86s-1.71,0-1.71,0v-2.86h-2.86s0-1.7,0-1.7Z"/><path class="cls-1" d="M578.37,40.24h2.86v-2.86s1.71,0,1.71,0v2.86h2.86s0,1.7,0,1.7h-2.86v2.86s-1.71,0-1.71,0v-2.86h-2.86s0-1.7,0-1.7Z"/><polyline class="cls-1" points="578.37 2.86 581.23 2.86 581.23 0 582.93 0 582.93 2.86 585.79 2.86 585.79 4.56 582.93 4.56 582.93 7.42 581.23 7.42 581.23 4.56 578.37 4.56"/><polyline class="cls-1" points="578.37 15.41 581.23 15.41 581.23 12.55 582.93 12.55 582.93 15.41 585.79 15.41 585.79 17.11 582.93 17.11 582.93 19.97 581.23 19.97 581.23 17.11 578.37 17.11"/><path class="cls-1" d="M587.79,2.86h2.86V0s1.71,0,1.71,0v2.86h2.86s0,1.7,0,1.7h-2.86v2.86s-1.71,0-1.71,0v-2.86h-2.86s0-1.7,0-1.7Z"/><path class="cls-1" d="M587.79,15.41h2.86v-2.86s1.71,0,1.71,0v2.86h2.86s0,1.7,0,1.7h-2.86v2.86s-1.71,0-1.71,0v-2.86h-2.86s0-1.7,0-1.7Z"/><path class="cls-1" d="M497.62,114.27h0c1.11,0,2-.9,2-2h0c0-.47.38-.85.85-.85h0c.47,0,.85.38.85.85h0c0,1.11.9,2,2,2h0c.47,0,.85.38.85.85h0c0,.47-.38.85-.85.85h0c-1.11,0-2,.9-2,2h0c0,.47-.38.85-.85.85h0c-.47,0-.85-.38-.85-.85h0c0-1.11-.9-2-2-2h0c-.47,0-.85-.38-.85-.85h0c0-.47.38-.85.85-.85Z"/><path class="cls-1" d="M569.79,53.25h0c1.11,0,2-.9,2-2h0c0-.47.38-.85.85-.85h0c.47,0,.85.38.85.85h0c0,1.11.9,2,2,2h0c.47,0,.85.38.85.85h0c0,.47-.38.85-.85.85h0c-1.11,0-2,.9-2,2h0c0,.47-.38.85-.85.85h0c-.47,0-.85-.38-.85-.85h0c0-1.11-.9-2-2-2h0c-.47,0-.85-.38-.85-.85h0c0-.47.38-.85.85-.85Z"/><path class="cls-1" d="M557.24,53.25h0c1.11,0,2-.9,2-2h0c0-.47.38-.85.85-.85h0c.47,0,.85.38.85.85h0c0,1.11.9,2,2,2h0c.47,0,.85.38.85.85h0c0,.47-.38.85-.85.85h0c-1.11,0-2,.9-2,2h0c0,.47-.38.85-.85.85h0c-.47,0-.85-.38-.85-.85h0c0-1.11-.9-2-2-2h0c-.47,0-.85-.38-.85-.85h0c0-.47.38-.85.85-.85Z"/><path class="cls-1" d="M544.69,78.35h0c1.11,0,2-.9,2-2h0c0-.47.38-.85.85-.85h0c.47,0,.85.38.85.85h0c0,1.11.9,2,2,2h0c.47,0,.85.38.85.85h0c0,.47-.38.85-.85.85h0c-1.11,0-2,.9-2,2h0c0,.47-.38.85-.85.85h0c-.47,0-.85-.38-.85-.85h0c0-1.11-.9-2-2-2h0c-.47,0-.85-.38-.85-.85h0c0-.47.38-.85.85-.85Z"/><path class="cls-1" d="M532.09,78.35h0c1.11,0,2-.9,2-2h0c0-.47.38-.85.85-.85h0c.47,0,.85.38.85.85h0c0,1.11.9,2,2,2h0c.47,0,.85.38.85.85h0c0,.47-.38.85-.85.85h0c-1.11,0-2,.9-2,2h0c0,.47-.38.85-.85.85h0c-.47,0-.85-.38-.85-.85h0c0-1.11-.9-2-2-2h0c-.47,0-.85-.38-.85-.85h0c0-.47.38-.85.85-.85Z"/><path class="cls-1" d="M579.23,27.37h0c1.11,0,2-.9,2-2h0c0-.47.38-.85.85-.85h0c.47,0,.85.38.85.85h0c0,1.11.9,2,2,2h0c.47,0,.85.38.85.85h0c0,.47-.38.85-.85.85h0c-1.11,0-2,.9-2,2h0c0,.47-.38.85-.85.85h0c-.47,0-.85-.38-.85-.85h0c0-1.11-.9-2-2-2h0c-.47,0-.85-.38-.85-.85h0c0-.47.38-.85.85-.85Z"/><path class="cls-1" d="M566.67,27.37h0c1.11,0,2-.9,2-2h0c0-.47.38-.85.85-.85h0c.47,0,.85.38.85.85h0c0,1.11.9,2,2,2h0c.47,0,.85.38.85.85h0c0,.47-.38.85-.85.85h0c-1.11,0-2,.9-2,2h0c0,.47-.38.85-.85.85h0c-.47,0-.85-.38-.85-.85h0c0-1.11-.9-2-2-2h0c-.47,0-.85-.38-.85-.85h0c0-.47.38-.85.85-.85Z"/><path class="cls-1" d="M44.16,42.02c0-9.15,1.48-10.45,8.19-11.15v-1.66h-20.21v1.66c6.1.35,8.19,1.83,8.19,11.15v22.7c0,7.05-.87,9.93-2,11.84-2.52,4.1-7.49,6.88-14.28,6.88-15.15,0-15.15-12.11-15.15-17.68V29.21H0v35.86c0,5.23,0,22.21,21.6,22.21s22.56-16.37,22.56-23.34v-21.92ZM162.67,29.21h-17.44v1.65c6.78.5,7.99,1.37,7.93,7.81l.13,44.15c-.04,4.7-.34,9-1.05,12.86-.96,5.16-3.39,7.83-5.09,9.11-1.62,1.21-4.45,1.41-5.06,1.34-1.22-.16-2.44-1.04-3.75-3.1-1.41-2.06-3.11-2.83-4.58-2.7-3.96.35-4.53,3.43-4.54,4.55.09,1.64.76,2.79,1.91,3.9,1.04,1,3.05,1.78,5.19,1.78,7,0,13.23-3.68,17.87-8.44,4.74-4.86,8.41-11.77,8.47-19.22V29.21ZM141.29,74.91l1.53,1.53c-.08.17-7.4,10.8-23.05,10.8-13.7,0-28.41-8.16-28.41-29.34,0-19.05,14.29-29.34,28.92-29.34,7.57,0,13.39,3.46,15.26,3.46.42,0,3.23,0,3.91-2.81h2.24v19.14h-2.21c-2.13-8.93-7.96-16.39-18.43-16.39-4.25,0-9.19,1.7-12.76,5.19-3.32,3.23-7.06,8.68-7.06,20.92,0,18.03,10.12,25.43,20.84,25.43s16.59-6.04,19.22-8.59ZM66.94,65.17c-2.83,0-5.12,2.29-5.12,5.12s2.29,5.12,5.12,5.12,5.12-2.29,5.12-5.12-2.29-5.12-5.12-5.12M96.2,86.07h-8.71l-20.3-45.68-15.5,37.14c-.43,1.14-.7,2.35-.7,3.31,0,3.66,4.09,3.66,5.92,3.66v1.65h-17.24v-1.65c1.39-.09,2.87-.26,4.44-1.92,2-2.18,4.7-8.54,6.36-12.37l17.61-40.99h2.78l25.35,56.86Z"/><path class="cls-1" d="M200.47,59.41h19.31v5.85h-12.97v5.85h11.99v5.85h-11.99v11.22h-6.34v-28.79Z"/><path class="cls-1" d="M247.18,59.41v17.52c0,3.41,2.44,6.14,5.81,6.14,3.01,0,5.77-2.4,5.77-6.14v-17.52h6.34v17.81c0,6.26-3.82,11.71-12.12,11.71s-12.16-5.45-12.16-11.71v-17.81h6.34Z"/><path class="cls-1" d="M284.82,59.41h22.77v5.61h-8.21v23.17h-6.34v-23.17h-8.21v-5.61Z"/><path class="cls-1" d="M333.65,59.41v17.52c0,3.41,2.44,6.14,5.81,6.14,3.01,0,5.77-2.4,5.77-6.14v-17.52h6.34v17.81c0,6.26-3.82,11.71-12.12,11.71s-12.16-5.45-12.16-11.71v-17.81h6.34Z"/><path class="cls-1" d="M373.93,88.2v-28.79h11.34c5.2,0,10.65,1.75,10.65,8.74,0,4.23-2.32,7.16-6.22,7.89l7.32,12.16h-7.6l-6.02-11.51h-3.13v11.51h-6.34ZM384.22,71.33c2.93,0,5.12-.49,5.12-3.21,0-2.36-1.75-3.33-4.76-3.33h-4.31v6.55h3.94Z"/><path class="cls-1" d="M446.3,73.81c0,9.15-6.5,15.13-15.53,15.13s-15.53-5.94-15.53-15.13,6.46-15.12,15.53-15.12,15.53,5.98,15.53,15.12ZM430.77,83.08c5.37,0,8.95-3.86,8.95-9.27s-3.58-9.27-8.99-9.27-8.9,3.82-8.9,9.27,3.54,9.27,8.94,9.27Z"/><path class="cls-1" d="M203,47.83h-2.66v-22.43h2.66v22.43Z"/><path class="cls-1" d="M218.05,47.83v-22.43h3.36l12.99,18.63h.06v-18.63h2.66v22.43h-3.36l-12.99-18.63h-.06v18.63h-2.66Z"/><path class="cls-1" d="M265.02,27.46l-2.19,1.9c-.89-1.43-2.47-2.06-4.09-2.06-2.82,0-4.78,1.46-4.78,3.77,0,2.19,1.43,3.14,4.82,4.15,5.13,1.52,6.62,3.42,6.62,6.62,0,4.02-3.33,6.56-7.89,6.56-3.07,0-5.61-1.17-6.91-3.11l2.28-1.87c.98,1.62,2.79,2.5,4.78,2.5,2.5,0,4.88-1.55,4.88-3.9,0-3.01-2.41-3.36-6.18-4.66-3.83-1.33-5.26-3.14-5.26-6.08,0-3.9,3.23-6.46,7.64-6.46,2.5,0,4.59.7,6.27,2.63Z"/><path class="cls-1" d="M279.28,47.83v-22.43h6.81c4.78,0,7.7,2.12,7.7,6.15s-3.07,6.21-7.22,6.21h-4.63v10.08h-2.66ZM281.94,35.29h4.63c2.69,0,4.37-1.39,4.37-3.71s-1.65-3.71-4.37-3.71h-4.63v7.41Z"/><path class="cls-1" d="M310.21,47.83h-2.66v-22.43h2.66v22.43Z"/><path class="cls-1" d="M325.26,47.83v-22.43h6.11c6.34,0,8.56,2.22,8.56,6.15,0,3.17-1.93,5.35-5.61,5.96l6.37,10.33h-3.26l-6.08-10.08h-3.42v10.08h-2.66ZM331.09,35.29c4.85,0,5.99-1.55,5.99-3.71,0-2.53-1.68-3.71-5.26-3.71h-3.9v7.41h3.17Z"/><path class="cls-1" d="M351.5,47.83l9.89-22.43h2.5l9.54,22.43h-3.11l-2.28-5.51h-11.22l-2.31,5.51h-3.01ZM367.03,39.85l-4.44-11.03h-.06l-4.66,11.03h9.16Z"/><path class="cls-1" d="M404.17,25.4h14.1v2.47h-11.44v7.03h10.68v2.47h-10.68v7.99h12.01v2.47h-14.67v-22.43Z"/><path class="cls-1" d="M435.1,45.36h10.27v2.47h-12.93v-22.43h2.66v19.96Z"/></g></svg>